<?xml version="1.0" encoding="UTF-8" standalone="no"?>
<!-- Created with Inkscape (http://www.inkscape.org/) -->

<svg
   width="309.15195"
   height="308.09134"
   viewBox="0 0 309.15195 308.09134"
   version="1.1"
   id="svg1"
   xml:space="preserve"
   inkscape:version="1.3.2 (091e20e, 2023-11-25, custom)"
   sodipodi:docname="no-cam.svg"
   xmlns:inkscape="http://www.inkscape.org/namespaces/inkscape"
   xmlns:sodipodi="http://sodipodi.sourceforge.net/DTD/sodipodi-0.dtd"
   xmlns="http://www.w3.org/2000/svg"
   xmlns:svg="http://www.w3.org/2000/svg"><sodipodi:namedview
     id="namedview1"
     pagecolor="#ffffff"
     bordercolor="#000000"
     borderopacity="0.25"
     inkscape:showpageshadow="2"
     inkscape:pageopacity="0.0"
     inkscape:pagecheckerboard="0"
     inkscape:deskcolor="#d1d1d1"
     inkscape:document-units="px"
     inkscape:zoom="3.5"
     inkscape:cx="115.42857"
     inkscape:cy="187.71429"
     inkscape:window-width="3840"
     inkscape:window-height="2054"
     inkscape:window-x="-11"
     inkscape:window-y="-11"
     inkscape:window-maximized="1"
     inkscape:current-layer="layer1"
     inkscape:clip-to-page="false" /><defs
     id="defs1" /><g
     inkscape:label="Layer 1"
     inkscape:groupmode="layer"
     id="layer1"
     transform="translate(-41.616348,-99.636997)"><path
       id="rect1"
       style="fill:#000000;fill-opacity:1;stroke-width:2.20823"
       d="m 330.76491,99.636997 c -0.48433,0 -1.34914,0.667813 -1.92359,1.487973 -0.94985,1.35609 -29.29891,29.97851 -45.07891,45.51452 -3.54929,3.49442 -6.58284,6.70182 -6.74113,7.12499 -0.5409,1.44608 -5.03387,-1.79799 -11.6579,-8.41457 l -6.49097,-6.48234 h -62.51617 l -62.51617,-0.004 -8.1299,7.83663 c -4.47283,4.3088 -8.66502,8.2585 -9.31596,8.77684 -0.65092,0.51834 -4.3581,4.03739 -8.23773,7.81938 l -7.05598,6.87484 H 72.126138 c -25.806882,0 -29.015725,0.11483 -29.375489,1.05235 -0.702548,1.8308 -0.468101,194.46613 0.23723,194.90206 0.353913,0.21861 4.844301,0.40265 9.980155,0.40973 7.733856,0.011 9.341844,0.17953 9.341844,0.98335 0,0.53393 -4.656646,5.56513 -10.346765,11.17916 l -10.346765,10.20873 9.471225,9.41085 c 5.208658,5.17631 9.865349,9.41085 10.346765,9.41085 0.481438,0 1.399575,-0.56491 2.040027,-1.25507 1.908594,-2.05663 18.27499,-18.60998 20.792724,-21.02991 1.280927,-1.2312 6.073843,-6.00461 10.648652,-10.60555 l 8.315369,-8.3628 123.06129,0.004 c 73.69846,0.004 123.21118,-0.2392 123.43653,-0.6038 0.20691,-0.33483 0.30092,-44.50241 0.20691,-98.15403 l -0.17246,-97.55023 H 325.4815 c -21.00125,0 -24.28621,-0.13124 -24.28621,-0.98337 0,-0.54192 11.15361,-12.09246 24.78651,-25.66633 l 24.7865,-24.67867 -9.56181,-9.60494 c -5.25914,-5.28135 -9.95732,-9.600625 -10.44163,-9.600625 z m -84.74508,63.879063 4.96419,4.99437 c 2.7301,2.7479 4.96421,5.23593 4.96421,5.5249 0,0.3769 -20.33479,21.03761 -23.65651,24.03603 -0.17401,0.15701 -1.14958,-0.33286 -2.16941,-1.08686 -4.39923,-3.25248 -9.64082,-5.33564 -20.69353,-8.22477 -6.83414,-1.78646 -19.30321,-1.78462 -26.09332,0.004 -9.7416,2.56599 -10.94424,2.95682 -13.82731,4.48116 -1.60993,0.85121 -3.18241,1.54835 -3.49781,1.54835 -0.887,0 -6.80125,3.96509 -11.40773,7.65115 -7.08914,5.67266 -12.35983,12.03706 -16.717,20.1846 -1.67474,3.13165 -3.04492,6.09087 -3.04492,6.57293 0,0.48203 -0.28323,1.39589 -0.6297,2.03139 -0.86883,1.5937 -2.45096,7.01941 -3.43742,11.80022 -1.83912,8.91333 -0.4032,24.0077 3.16572,33.27439 1.53618,3.98877 5.15469,11.28014 5.72326,11.53283 1.76559,0.78472 -2.24024,5.26864 -25.54125,28.59914 L 88.079728,342.51615 H 77.965865 c -5.562528,0 -10.314106,-0.20029 -10.558093,-0.44423 -0.243987,-0.24399 -0.439923,-33.48328 -0.439923,-73.86352 v -73.41919 h 23.522801 23.52713 l 4.58898,-4.67091 c 2.52324,-2.57018 6.68506,-6.43176 9.24696,-8.58277 2.5619,-2.15103 7.80211,-7.08464 11.64494,-10.95919 l 6.98699,-7.04304 49.76709,-0.009 z m 30.63917,29.94477 c 0.2778,0 0.68815,0.2982 0.91434,0.66419 0.26165,0.42336 8.98849,0.66419 23.99291,0.66419 h 23.5832 l 0.0177,1.833 c 0.19852,28.11435 -0.1029,144.83679 -0.37522,145.27729 -0.53671,0.86843 -196.78757,0.82981 -196.49352,-0.0389 0.12211,-0.3603 7.23729,-7.69663 15.81557,-16.30296 13.99591,-14.04168 17.38916,-16.87095 18.1187,-15.11256 0.20845,0.50257 6.44233,3.63238 10.86861,5.45589 9.49006,3.90967 24.97821,5.42928 34.34399,3.37272 12.25525,-2.69102 22.1601,-7.14576 29.59976,-13.31408 1.13167,-0.93829 2.71585,-2.15525 3.52367,-2.70421 1.99166,-1.35343 9.32029,-10.20714 11.83904,-14.30603 2.91433,-4.74268 6.06156,-11.53095 6.78858,-14.63815 0.34254,-1.46393 1.24034,-4.91059 1.9969,-7.65547 2.29254,-8.31747 1.65893,-23.74913 -1.27232,-30.94109 -0.29833,-0.73196 -0.7224,-2.16602 -0.94454,-3.18726 -0.43551,-2.00203 -4.31097,-10.38254 -6.08124,-13.15018 l -1.08687,-1.69499 12.17113,-12.11075 c 6.69436,-6.66136 12.40228,-12.11076 12.68007,-12.11076 z m -80.26824,14.67264 c 8.06657,0.0592 17.48956,2.37587 19.4945,4.7917 0.60437,0.72818 -5.27448,6.93748 -29.33234,30.98418 -16.54816,16.54053 -30.28818,30.25166 -30.53567,30.46667 -0.24752,0.21509 -0.96482,-0.5996 -1.59147,-1.81143 -3.70543,-7.1655 -4.83779,-22.23348 -2.32037,-30.83759 1.59956,-5.46697 4.92559,-12.39946 6.73682,-14.03863 0.70597,-0.63889 1.28526,-1.50169 1.28526,-1.91496 0,-1.75147 13.56406,-13.01646 15.67325,-13.01646 0.29754,0 1.8588,-0.63807 3.47191,-1.41897 3.82518,-1.85173 11.27487,-3.24744 17.11811,-3.20451 z m 40.28723,25.2523 c 0.79525,0 3.46742,6.07533 4.0973,9.31597 1.11871,5.7558 1.37937,14.15009 0.58655,18.89933 -0.80826,4.84185 -3.56349,12.54762 -5.15396,14.42249 -0.49016,0.57779 -0.88848,1.28543 -0.88848,1.56992 0,1.53978 -9.7066,12.35228 -11.08858,12.35228 -0.45306,0 -1.06158,0.42325 -1.35426,0.94022 -0.99414,1.75603 -9.82388,5.85198 -15.94928,7.3967 -5.55193,1.40011 -11.13851,1.82605 -15.52661,1.18606 -4.14767,-0.6049 -13.09533,-3.03761 -14.21117,-3.8644 -0.67872,-0.50285 -1.11984,-1.251 -0.98335,-1.66047 0.32262,-0.96787 59.82794,-60.5581 60.47184,-60.5581 z" /></g></svg>
